<svg width="504" height="67" viewBox="0 0 504 67" fill="none" xmlns="http://www.w3.org/2000/svg">
<g id="Group 24">
<g id="Group 21">
<g id="Second header">
<path id="Second header_2" d="M84.44 36.088H83.428V40.356C83.428 40.884 83.428 41.4267 83.428 41.984C83.4573 42.512 83.472 43.0693 83.472 43.656C83.5013 44.3013 83.8533 44.668 84.528 44.756L86.332 44.932C87.036 45.02 87.388 45.3867 87.388 46.032C87.388 46.6773 87.0213 47 86.288 47H75.684C74.9507 47 74.584 46.6773 74.584 46.032C74.584 45.3867 74.936 45.0347 75.64 44.976L77.224 44.8C77.8987 44.712 78.2507 44.3307 78.28 43.656C78.28 42.952 78.28 42.248 78.28 41.544C78.3093 40.8107 78.324 40.0773 78.324 39.344V26.76C78.324 26.0267 78.3093 25.308 78.28 24.604C78.28 23.8707 78.28 23.1373 78.28 22.404C78.2213 21.7293 77.8693 21.348 77.224 21.26L75.64 21.084C74.936 20.996 74.584 20.644 74.584 20.028C74.584 19.3827 74.9507 19.06 75.684 19.06H85.98C87.3587 19.06 88.7227 19.192 90.072 19.456C91.4213 19.6907 92.624 20.1307 93.68 20.776C94.7653 21.392 95.6307 22.2427 96.276 23.328C96.9507 24.384 97.288 25.7333 97.288 27.376C97.288 29.1653 96.892 30.632 96.1 31.776C95.308 32.8907 94.2813 33.7707 93.02 34.416C91.788 35.0613 90.4093 35.5013 88.884 35.736C87.388 35.9707 85.9067 36.088 84.44 36.088ZM85.408 21.216H83.516C83.4867 22.1253 83.4573 23.02 83.428 23.9C83.428 24.78 83.428 25.6893 83.428 26.628V33.932H85.1C87.6227 33.932 89.456 33.3307 90.6 32.128C91.744 30.9253 92.316 29.3707 92.316 27.464C92.316 25.44 91.7587 23.9 90.644 22.844C89.5587 21.7587 87.8133 21.216 85.408 21.216ZM110.015 26.144C111.54 26.144 112.933 26.4373 114.195 27.024C115.456 27.5813 116.527 28.3587 117.407 29.356C118.316 30.324 119.005 31.468 119.475 32.788C119.973 34.0787 120.223 35.472 120.223 36.968C120.223 38.4933 119.973 39.916 119.475 41.236C119.005 42.5267 118.331 43.656 117.451 44.624C116.571 45.5627 115.5 46.3107 114.239 46.868C112.977 47.396 111.569 47.66 110.015 47.66C108.46 47.66 107.052 47.396 105.791 46.868C104.529 46.3107 103.459 45.5627 102.579 44.624C101.699 43.656 101.009 42.5267 100.511 41.236C100.041 39.916 99.8067 38.4933 99.8067 36.968C99.8067 35.472 100.041 34.064 100.511 32.744C101.009 31.424 101.699 30.28 102.579 29.312C103.488 28.344 104.559 27.5813 105.791 27.024C107.052 26.4373 108.46 26.144 110.015 26.144ZM110.015 28.124C106.641 28.124 104.955 31.0573 104.955 36.924C104.955 42.732 106.641 45.636 110.015 45.636C113.388 45.636 115.075 42.732 115.075 36.924C115.075 31.0573 113.388 28.124 110.015 28.124ZM142.537 43.788C142.537 44.4333 142.874 44.8293 143.549 44.976L144.473 45.152C145.147 45.2987 145.485 45.636 145.485 46.164C145.485 46.692 145.133 46.9853 144.428 47.044L139.413 47.352C138.709 47.352 138.313 47.0293 138.225 46.384L138.049 44.8C137.198 45.7387 136.303 46.4573 135.365 46.956C134.426 47.4253 133.297 47.66 131.977 47.66C130.51 47.66 129.234 47.352 128.149 46.736C127.093 46.12 126.213 45.3133 125.509 44.316C124.834 43.3187 124.321 42.1893 123.969 40.928C123.646 39.6667 123.485 38.376 123.485 37.056C123.485 35.7067 123.675 34.3867 124.057 33.096C124.438 31.776 124.995 30.6027 125.729 29.576C126.491 28.5493 127.43 27.728 128.545 27.112C129.689 26.4667 131.009 26.144 132.505 26.144C134.705 26.144 136.567 26.9947 138.093 28.696V21.392C138.093 20.688 137.755 20.292 137.081 20.204L135.585 20.028C134.91 19.94 134.573 19.632 134.573 19.104C134.573 18.576 134.895 18.224 135.541 18.048L141.349 16.552C141.495 16.4933 141.613 16.464 141.701 16.464C141.818 16.464 141.935 16.464 142.053 16.464C142.258 16.464 142.39 16.4933 142.449 16.552C142.595 16.6693 142.669 17.0213 142.669 17.608L142.537 22.712V43.788ZM137.873 42.996V30.72C136.347 29.5467 134.983 28.96 133.781 28.96C132.754 28.96 131.889 29.224 131.185 29.752C130.51 30.2507 129.967 30.896 129.557 31.688C129.175 32.48 128.897 33.3453 128.721 34.284C128.574 35.2227 128.501 36.1027 128.501 36.924C128.501 39.6227 128.985 41.6173 129.953 42.908C130.921 44.1693 132.153 44.8 133.649 44.8C135.027 44.8 136.435 44.1987 137.873 42.996ZM164.257 42.292C164.579 41.852 164.887 41.632 165.181 41.632C165.269 41.632 165.371 41.6613 165.489 41.72C165.929 41.984 166.017 42.424 165.753 43.04C165.078 44.536 164.051 45.68 162.673 46.472C161.323 47.264 159.725 47.66 157.877 47.66C156.293 47.66 154.885 47.396 153.653 46.868C152.421 46.3107 151.379 45.5627 150.529 44.624C149.707 43.656 149.077 42.5267 148.637 41.236C148.226 39.916 148.021 38.4933 148.021 36.968C148.021 35.472 148.27 34.064 148.769 32.744C149.267 31.424 149.971 30.28 150.881 29.312C151.79 28.3147 152.875 27.5373 154.137 26.98C155.398 26.4227 156.806 26.144 158.361 26.144C159.241 26.144 160.106 26.2613 160.957 26.496C161.837 26.7307 162.629 27.0973 163.333 27.596C164.066 28.0653 164.682 28.6667 165.181 29.4C165.679 30.104 165.973 30.9253 166.061 31.864C165.855 33.0667 165.107 33.668 163.817 33.668C162.321 33.668 161.455 32.7587 161.221 30.94L160.913 29.268C160.795 28.74 160.546 28.4173 160.165 28.3C159.813 28.1827 159.417 28.124 158.977 28.124C157.891 28.124 156.967 28.388 156.205 28.916C155.442 29.4147 154.826 30.0747 154.357 30.896C153.887 31.688 153.535 32.5827 153.301 33.58C153.095 34.548 152.993 35.4867 152.993 36.396C152.993 39.1533 153.594 41.2213 154.797 42.6C155.999 43.9787 157.539 44.668 159.417 44.668C161.411 44.668 163.025 43.876 164.257 42.292ZM188.347 44.008C188.406 43.9493 188.597 44.0667 188.919 44.36C189.271 44.712 189.257 45.152 188.875 45.68C188.406 46.3547 187.893 46.8093 187.335 47.044C186.778 47.308 186.118 47.44 185.355 47.44C184.153 47.44 183.199 47.1907 182.495 46.692C181.821 46.164 181.351 45.4747 181.087 44.624C180.149 45.5627 179.239 46.3107 178.359 46.868C177.479 47.396 176.35 47.66 174.971 47.66C173.358 47.66 171.994 47.22 170.879 46.34C169.794 45.46 169.251 44.1693 169.251 42.468C169.251 41.324 169.559 40.3413 170.175 39.52C170.821 38.6987 171.613 37.9947 172.551 37.408C173.519 36.8213 174.546 36.3373 175.631 35.956C176.717 35.5747 177.729 35.252 178.667 34.988L180.911 34.328V33.184C180.911 31.248 180.618 29.928 180.031 29.224C179.474 28.4907 178.506 28.124 177.127 28.124C176.981 28.124 176.834 28.124 176.687 28.124C176.57 28.124 176.438 28.1387 176.291 28.168C175.705 28.1973 175.338 28.5493 175.191 29.224L174.795 31.028C174.443 32.788 173.563 33.668 172.155 33.668C171.569 33.668 171.07 33.492 170.659 33.14C170.249 32.7587 170.014 32.2747 169.955 31.688C170.219 30.0453 171.099 28.7107 172.595 27.684C174.121 26.6573 176.115 26.144 178.579 26.144C181.014 26.144 182.789 26.7307 183.903 27.904C185.018 29.0773 185.575 31.1453 185.575 34.108V42.952C185.575 44.272 185.986 44.932 186.807 44.932C187.159 44.932 187.482 44.8293 187.775 44.624C187.981 44.4773 188.113 44.36 188.171 44.272C188.23 44.1547 188.289 44.0667 188.347 44.008ZM180.911 42.908V36.088C180.207 36.264 179.445 36.484 178.623 36.748C177.831 37.012 177.083 37.3493 176.379 37.76C175.675 38.1707 175.089 38.684 174.619 39.3C174.15 39.8867 173.915 40.6053 173.915 41.456C173.915 42.4533 174.209 43.2307 174.795 43.788C175.411 44.3453 176.218 44.624 177.215 44.624C177.802 44.624 178.345 44.5067 178.843 44.272C179.371 44.0373 180.061 43.5827 180.911 42.908ZM199.786 34.416L201.194 34.9C202.28 35.3107 203.174 35.7507 203.878 36.22C204.612 36.66 205.213 37.1293 205.682 37.628C206.093 38.156 206.386 38.728 206.562 39.344C206.738 39.9307 206.826 40.5613 206.826 41.236C206.826 42.4093 206.562 43.4067 206.034 44.228C205.536 45.02 204.876 45.68 204.054 46.208C203.233 46.7067 202.309 47.0733 201.282 47.308C200.285 47.5427 199.288 47.66 198.29 47.66C197.058 47.66 195.973 47.528 195.034 47.264C194.096 47.0293 193.157 46.6773 192.218 46.208C191.69 45.9733 191.426 45.548 191.426 44.932L191.382 42.16C191.382 41.4267 191.734 41.06 192.438 41.06H193.142C193.788 41.06 194.184 41.3973 194.33 42.072L194.682 43.92C194.77 44.5067 195.078 44.888 195.606 45.064C196.486 45.416 197.396 45.592 198.334 45.592C199.83 45.592 200.916 45.328 201.59 44.8C202.265 44.272 202.602 43.5387 202.602 42.6C202.602 41.7493 202.309 41.0893 201.722 40.62C201.136 40.1213 200.094 39.5787 198.598 38.992L196.662 38.288C195.02 37.6133 193.758 36.8067 192.878 35.868C191.998 34.9293 191.558 33.7267 191.558 32.26C191.558 31.1453 191.793 30.2067 192.262 29.444C192.732 28.6813 193.348 28.0507 194.11 27.552C194.873 27.0533 195.724 26.7013 196.662 26.496C197.601 26.2613 198.554 26.144 199.522 26.144C200.549 26.144 201.488 26.2613 202.338 26.496C203.189 26.7013 204.04 27.0093 204.89 27.42C205.448 27.684 205.712 28.124 205.682 28.74L205.55 31.204C205.521 31.908 205.154 32.26 204.45 32.26H203.79C203.116 32.26 202.72 31.9373 202.602 31.292L202.294 29.664C202.177 29.048 201.854 28.6667 201.326 28.52C200.71 28.2853 200.065 28.168 199.39 28.168C198.217 28.168 197.308 28.4173 196.662 28.916C196.046 29.4147 195.738 30.1333 195.738 31.072C195.738 31.776 196.017 32.3773 196.574 32.876C196.868 33.1107 197.278 33.36 197.806 33.624C198.364 33.888 199.024 34.152 199.786 34.416ZM220.759 44.096C221.081 43.92 221.36 43.832 221.595 43.832C221.829 43.832 222.035 43.9347 222.211 44.14C222.592 44.6093 222.563 45.0787 222.123 45.548C221.565 46.1347 220.876 46.604 220.055 46.956C219.263 47.2787 218.309 47.44 217.195 47.44C215.581 47.44 214.305 47.044 213.367 46.252C212.457 45.4307 212.003 44.1547 212.003 42.424C212.003 42.0427 212.003 41.7053 212.003 41.412C212.003 41.0893 212.017 40.7813 212.047 40.488V30.456C212.047 29.7227 211.68 29.356 210.947 29.356H210.023C209.289 29.356 208.923 29.004 208.923 28.3C208.923 27.6253 209.26 27.244 209.935 27.156L211.475 26.98C212.091 26.892 212.457 26.54 212.575 25.924L213.367 21.964C213.484 21.3187 213.88 20.996 214.555 20.996H215.787C216.491 20.996 216.843 21.3627 216.843 22.096L216.755 25.792C216.755 26.5253 217.121 26.892 217.855 26.892H220.891C221.624 26.892 221.991 27.2587 221.991 27.992V28.256C221.991 28.9893 221.624 29.356 220.891 29.356H217.811C217.077 29.356 216.711 29.7227 216.711 30.456V41.588C216.711 42.6733 216.916 43.4507 217.327 43.92C217.767 44.3893 218.324 44.624 218.999 44.624C219.233 44.624 219.497 44.5947 219.791 44.536C220.113 44.448 220.436 44.3013 220.759 44.096ZM225.649 34.944C224.916 34.944 224.549 34.5773 224.549 33.844V32.744C224.549 32.0107 224.916 31.644 225.649 31.644H234.053C234.786 31.644 235.153 32.0107 235.153 32.744V33.844C235.153 34.5773 234.786 34.944 234.053 34.944H225.649ZM238.51 20.028C238.51 19.3827 238.876 19.06 239.61 19.06H251.182C253.323 19.06 255.23 19.3973 256.902 20.072C258.603 20.7173 260.04 21.6413 261.214 22.844C262.416 24.0467 263.326 25.5133 263.942 27.244C264.587 28.9453 264.91 30.852 264.91 32.964C264.91 35.164 264.543 37.144 263.81 38.904C263.106 40.6347 262.108 42.1013 260.818 43.304C259.556 44.5067 258.016 45.4307 256.198 46.076C254.408 46.692 252.443 47 250.302 47H239.61C238.876 47 238.51 46.6773 238.51 46.032C238.51 45.3867 238.862 45.0347 239.566 44.976L241.15 44.8C241.824 44.712 242.176 44.3453 242.206 43.7C242.206 42.9373 242.206 42.204 242.206 41.5C242.235 40.7667 242.25 40.0187 242.25 39.256V26.76C242.25 26.0267 242.235 25.308 242.206 24.604C242.206 23.8707 242.206 23.1373 242.206 22.404C242.147 21.7293 241.795 21.348 241.15 21.26L239.566 21.084C238.862 20.996 238.51 20.644 238.51 20.028ZM247.442 44.844H250.082C251.783 44.844 253.22 44.5067 254.394 43.832C255.567 43.1573 256.52 42.2773 257.254 41.192C258.016 40.0773 258.559 38.816 258.882 37.408C259.204 36 259.366 34.548 259.366 33.052C259.366 29.18 258.5 26.2467 256.77 24.252C255.068 22.228 252.824 21.216 250.038 21.216H247.442C247.412 22.1253 247.383 23.02 247.354 23.9C247.354 24.78 247.354 25.6893 247.354 26.628V39.3C247.354 40.2387 247.354 41.1627 247.354 42.072C247.383 42.9813 247.412 43.9053 247.442 44.844ZM287.476 44.008C287.535 43.9493 287.726 44.0667 288.048 44.36C288.4 44.712 288.386 45.152 288.004 45.68C287.535 46.3547 287.022 46.8093 286.464 47.044C285.907 47.308 285.247 47.44 284.484 47.44C283.282 47.44 282.328 47.1907 281.624 46.692C280.95 46.164 280.48 45.4747 280.216 44.624C279.278 45.5627 278.368 46.3107 277.488 46.868C276.608 47.396 275.479 47.66 274.1 47.66C272.487 47.66 271.123 47.22 270.008 46.34C268.923 45.46 268.38 44.1693 268.38 42.468C268.38 41.324 268.688 40.3413 269.304 39.52C269.95 38.6987 270.742 37.9947 271.68 37.408C272.648 36.8213 273.675 36.3373 274.76 35.956C275.846 35.5747 276.858 35.252 277.796 34.988L280.04 34.328V33.184C280.04 31.248 279.747 29.928 279.16 29.224C278.603 28.4907 277.635 28.124 276.256 28.124C276.11 28.124 275.963 28.124 275.816 28.124C275.699 28.124 275.567 28.1387 275.42 28.168C274.834 28.1973 274.467 28.5493 274.32 29.224L273.924 31.028C273.572 32.788 272.692 33.668 271.284 33.668C270.698 33.668 270.199 33.492 269.788 33.14C269.378 32.7587 269.143 32.2747 269.084 31.688C269.348 30.0453 270.228 28.7107 271.724 27.684C273.25 26.6573 275.244 26.144 277.708 26.144C280.143 26.144 281.918 26.7307 283.032 27.904C284.147 29.0773 284.704 31.1453 284.704 34.108V42.952C284.704 44.272 285.115 44.932 285.936 44.932C286.288 44.932 286.611 44.8293 286.904 44.624C287.11 44.4773 287.242 44.36 287.3 44.272C287.359 44.1547 287.418 44.0667 287.476 44.008ZM280.04 42.908V36.088C279.336 36.264 278.574 36.484 277.752 36.748C276.96 37.012 276.212 37.3493 275.508 37.76C274.804 38.1707 274.218 38.684 273.748 39.3C273.279 39.8867 273.044 40.6053 273.044 41.456C273.044 42.4533 273.338 43.2307 273.924 43.788C274.54 44.3453 275.347 44.624 276.344 44.624C276.931 44.624 277.474 44.5067 277.972 44.272C278.5 44.0373 279.19 43.5827 280.04 42.908ZM300.895 44.096C301.218 43.92 301.497 43.832 301.731 43.832C301.966 43.832 302.171 43.9347 302.347 44.14C302.729 44.6093 302.699 45.0787 302.259 45.548C301.702 46.1347 301.013 46.604 300.191 46.956C299.399 47.2787 298.446 47.44 297.331 47.44C295.718 47.44 294.442 47.044 293.503 46.252C292.594 45.4307 292.139 44.1547 292.139 42.424C292.139 42.0427 292.139 41.7053 292.139 41.412C292.139 41.0893 292.154 40.7813 292.183 40.488V30.456C292.183 29.7227 291.817 29.356 291.083 29.356H290.159C289.426 29.356 289.059 29.004 289.059 28.3C289.059 27.6253 289.397 27.244 290.071 27.156L291.611 26.98C292.227 26.892 292.594 26.54 292.711 25.924L293.503 21.964C293.621 21.3187 294.017 20.996 294.691 20.996H295.923C296.627 20.996 296.979 21.3627 296.979 22.096L296.891 25.792C296.891 26.5253 297.258 26.892 297.991 26.892H301.027C301.761 26.892 302.127 27.2587 302.127 27.992V28.256C302.127 28.9893 301.761 29.356 301.027 29.356H297.947C297.214 29.356 296.847 29.7227 296.847 30.456V41.588C296.847 42.6733 297.053 43.4507 297.463 43.92C297.903 44.3893 298.461 44.624 299.135 44.624C299.37 44.624 299.634 44.5947 299.927 44.536C300.25 44.448 300.573 44.3013 300.895 44.096ZM323.914 44.008C323.972 43.9493 324.163 44.0667 324.486 44.36C324.838 44.712 324.823 45.152 324.442 45.68C323.972 46.3547 323.459 46.8093 322.902 47.044C322.344 47.308 321.684 47.44 320.922 47.44C319.719 47.44 318.766 47.1907 318.062 46.692C317.387 46.164 316.918 45.4747 316.654 44.624C315.715 45.5627 314.806 46.3107 313.926 46.868C313.046 47.396 311.916 47.66 310.538 47.66C308.924 47.66 307.56 47.22 306.446 46.34C305.36 45.46 304.818 44.1693 304.818 42.468C304.818 41.324 305.126 40.3413 305.742 39.52C306.387 38.6987 307.179 37.9947 308.118 37.408C309.086 36.8213 310.112 36.3373 311.198 35.956C312.283 35.5747 313.295 35.252 314.234 34.988L316.478 34.328V33.184C316.478 31.248 316.184 29.928 315.598 29.224C315.04 28.4907 314.072 28.124 312.694 28.124C312.547 28.124 312.4 28.124 312.254 28.124C312.136 28.124 312.004 28.1387 311.858 28.168C311.271 28.1973 310.904 28.5493 310.758 29.224L310.362 31.028C310.01 32.788 309.13 33.668 307.722 33.668C307.135 33.668 306.636 33.492 306.226 33.14C305.815 32.7587 305.58 32.2747 305.522 31.688C305.786 30.0453 306.666 28.7107 308.162 27.684C309.687 26.6573 311.682 26.144 314.146 26.144C316.58 26.144 318.355 26.7307 319.47 27.904C320.584 29.0773 321.142 31.1453 321.142 34.108V42.952C321.142 44.272 321.552 44.932 322.374 44.932C322.726 44.932 323.048 44.8293 323.342 44.624C323.547 44.4773 323.679 44.36 323.738 44.272C323.796 44.1547 323.855 44.0667 323.914 44.008ZM316.478 42.908V36.088C315.774 36.264 315.011 36.484 314.19 36.748C313.398 37.012 312.65 37.3493 311.946 37.76C311.242 38.1707 310.655 38.684 310.186 39.3C309.716 39.8867 309.482 40.6053 309.482 41.456C309.482 42.4533 309.775 43.2307 310.362 43.788C310.978 44.3453 311.784 44.624 312.782 44.624C313.368 44.624 313.911 44.5067 314.41 44.272C314.938 44.0373 315.627 43.5827 316.478 42.908ZM333.813 22.712V28.96C334.722 28.0213 335.675 27.3173 336.673 26.848C337.67 26.3787 338.799 26.144 340.061 26.144C341.527 26.144 342.774 26.4667 343.801 27.112C344.827 27.728 345.663 28.5493 346.309 29.576C346.983 30.5733 347.467 31.7027 347.761 32.964C348.083 34.2253 348.245 35.4867 348.245 36.748C348.245 38.0973 348.069 39.432 347.717 40.752C347.365 42.0427 346.822 43.2013 346.089 44.228C345.355 45.2547 344.431 46.0907 343.317 46.736C342.202 47.352 340.897 47.66 339.401 47.66C338.286 47.66 337.274 47.4547 336.365 47.044C335.455 46.6627 334.59 46.0173 333.769 45.108H333.505L333.373 46.472C333.285 47.1467 332.874 47.484 332.141 47.484L327.389 47.088C326.685 47.0293 326.333 46.7213 326.333 46.164C326.333 45.636 326.67 45.2987 327.345 45.152L328.225 44.976C328.87 44.8293 329.207 44.448 329.237 43.832V21.348C329.237 20.6733 328.899 20.292 328.225 20.204L326.905 20.028C326.23 19.94 325.893 19.632 325.893 19.104C325.893 18.576 326.201 18.224 326.817 18.048L332.581 16.552C332.727 16.4933 332.845 16.464 332.933 16.464C333.05 16.464 333.167 16.464 333.285 16.464C333.49 16.464 333.622 16.4933 333.681 16.552C333.857 16.6693 333.945 17.0213 333.945 17.608L333.813 22.712ZM333.945 30.852V43.04C335.382 44.2133 336.79 44.8 338.169 44.8C339.166 44.8 339.987 44.5507 340.633 44.052C341.307 43.524 341.835 42.8787 342.217 42.116C342.598 41.324 342.862 40.4733 343.009 39.564C343.185 38.6547 343.273 37.804 343.273 37.012C343.273 34.3133 342.833 32.304 341.953 30.984C341.073 29.6347 339.885 28.96 338.389 28.96C337.098 28.96 335.617 29.5907 333.945 30.852ZM370.793 44.008C370.851 43.9493 371.042 44.0667 371.365 44.36C371.717 44.712 371.702 45.152 371.321 45.68C370.851 46.3547 370.338 46.8093 369.781 47.044C369.223 47.308 368.563 47.44 367.801 47.44C366.598 47.44 365.645 47.1907 364.941 46.692C364.266 46.164 363.797 45.4747 363.533 44.624C362.594 45.5627 361.685 46.3107 360.805 46.868C359.925 47.396 358.795 47.66 357.417 47.66C355.803 47.66 354.439 47.22 353.325 46.34C352.239 45.46 351.697 44.1693 351.697 42.468C351.697 41.324 352.005 40.3413 352.621 39.52C353.266 38.6987 354.058 37.9947 354.997 37.408C355.965 36.8213 356.991 36.3373 358.077 35.956C359.162 35.5747 360.174 35.252 361.113 34.988L363.357 34.328V33.184C363.357 31.248 363.063 29.928 362.477 29.224C361.919 28.4907 360.951 28.124 359.573 28.124C359.426 28.124 359.279 28.124 359.133 28.124C359.015 28.124 358.883 28.1387 358.737 28.168C358.15 28.1973 357.783 28.5493 357.637 29.224L357.241 31.028C356.889 32.788 356.009 33.668 354.601 33.668C354.014 33.668 353.515 33.492 353.105 33.14C352.694 32.7587 352.459 32.2747 352.401 31.688C352.665 30.0453 353.545 28.7107 355.041 27.684C356.566 26.6573 358.561 26.144 361.025 26.144C363.459 26.144 365.234 26.7307 366.349 27.904C367.463 29.0773 368.021 31.1453 368.021 34.108V42.952C368.021 44.272 368.431 44.932 369.253 44.932C369.605 44.932 369.927 44.8293 370.221 44.624C370.426 44.4773 370.558 44.36 370.617 44.272C370.675 44.1547 370.734 44.0667 370.793 44.008ZM363.357 42.908V36.088C362.653 36.264 361.89 36.484 361.069 36.748C360.277 37.012 359.529 37.3493 358.825 37.76C358.121 38.1707 357.534 38.684 357.065 39.3C356.595 39.8867 356.361 40.6053 356.361 41.456C356.361 42.4533 356.654 43.2307 357.241 43.788C357.857 44.3453 358.663 44.624 359.661 44.624C360.247 44.624 360.79 44.5067 361.289 44.272C361.817 44.0373 362.506 43.5827 363.357 42.908ZM382.232 34.416L383.64 34.9C384.725 35.3107 385.62 35.7507 386.324 36.22C387.057 36.66 387.658 37.1293 388.128 37.628C388.538 38.156 388.832 38.728 389.008 39.344C389.184 39.9307 389.272 40.5613 389.272 41.236C389.272 42.4093 389.008 43.4067 388.48 44.228C387.981 45.02 387.321 45.68 386.5 46.208C385.678 46.7067 384.754 47.0733 383.728 47.308C382.73 47.5427 381.733 47.66 380.736 47.66C379.504 47.66 378.418 47.528 377.48 47.264C376.541 47.0293 375.602 46.6773 374.664 46.208C374.136 45.9733 373.872 45.548 373.872 44.932L373.828 42.16C373.828 41.4267 374.18 41.06 374.884 41.06H375.588C376.233 41.06 376.629 41.3973 376.776 42.072L377.128 43.92C377.216 44.5067 377.524 44.888 378.052 45.064C378.932 45.416 379.841 45.592 380.78 45.592C382.276 45.592 383.361 45.328 384.036 44.8C384.71 44.272 385.048 43.5387 385.048 42.6C385.048 41.7493 384.754 41.0893 384.168 40.62C383.581 40.1213 382.54 39.5787 381.044 38.992L379.108 38.288C377.465 37.6133 376.204 36.8067 375.324 35.868C374.444 34.9293 374.004 33.7267 374.004 32.26C374.004 31.1453 374.238 30.2067 374.708 29.444C375.177 28.6813 375.793 28.0507 376.556 27.552C377.318 27.0533 378.169 26.7013 379.108 26.496C380.046 26.2613 381 26.144 381.968 26.144C382.994 26.144 383.933 26.2613 384.784 26.496C385.634 26.7013 386.485 27.0093 387.336 27.42C387.893 27.684 388.157 28.124 388.128 28.74L387.996 31.204C387.966 31.908 387.6 32.26 386.896 32.26H386.236C385.561 32.26 385.165 31.9373 385.048 31.292L384.74 29.664C384.622 29.048 384.3 28.6667 383.772 28.52C383.156 28.2853 382.51 28.168 381.836 28.168C380.662 28.168 379.753 28.4173 379.108 28.916C378.492 29.4147 378.184 30.1333 378.184 31.072C378.184 31.776 378.462 32.3773 379.02 32.876C379.313 33.1107 379.724 33.36 380.252 33.624C380.809 33.888 381.469 34.152 382.232 34.416ZM411.828 35.428C411.711 36.0733 411.3 36.396 410.596 36.396H397.836C397.895 39.0653 398.54 41.0747 399.772 42.424C401.004 43.7733 402.603 44.448 404.568 44.448C405.712 44.448 406.68 44.2427 407.472 43.832C408.293 43.392 409.041 42.7907 409.716 42.028C410.039 41.676 410.347 41.5 410.64 41.5C410.787 41.5 410.919 41.544 411.036 41.632C411.476 41.9253 411.535 42.3653 411.212 42.952C410.449 44.448 409.349 45.592 407.912 46.384C406.475 47.176 404.788 47.572 402.852 47.572C401.209 47.572 399.743 47.2933 398.452 46.736C397.191 46.1787 396.12 45.416 395.24 44.448C394.389 43.4507 393.744 42.2773 393.304 40.928C392.864 39.5787 392.644 38.112 392.644 36.528C392.644 35.0027 392.893 33.5507 393.392 32.172C393.891 30.7933 394.595 29.5907 395.504 28.564C396.443 27.508 397.557 26.6867 398.848 26.1C400.168 25.484 401.62 25.176 403.204 25.176C404.524 25.176 405.712 25.396 406.768 25.836C407.853 26.276 408.777 26.892 409.54 27.684C410.303 28.4467 410.889 29.3707 411.3 30.456C411.711 31.5413 411.916 32.744 411.916 34.064C411.916 34.2987 411.916 34.5333 411.916 34.768C411.916 34.9733 411.887 35.1933 411.828 35.428ZM397.924 34.372H404.524C405.58 34.372 406.284 34.152 406.636 33.712C407.017 33.272 407.208 32.656 407.208 31.864C407.208 30.544 406.827 29.444 406.064 28.564C405.331 27.684 404.407 27.244 403.292 27.244C402.383 27.244 401.591 27.4787 400.916 27.948C400.271 28.388 399.728 28.96 399.288 29.664C398.877 30.368 398.555 31.1453 398.32 31.996C398.115 32.8173 397.983 33.6093 397.924 34.372Z" fill="black"/>
</g>
<g id="Ellipse 5">
<path id="Ellipse 2" d="M67 33.5C67 52.0015 52.0015 67 33.5 67C14.9985 67 0 52.0015 0 33.5C0 14.9985 14.9985 0 33.5 0C52.0015 0 67 14.9985 67 33.5Z" fill="black"/>
<rect id="Rectangle 20" x="12" y="16" width="2" height="38" fill="#FFFAFA"/>
<rect id="Rectangle 21" x="17" y="33" width="2" height="21" fill="white"/>
<rect id="Rectangle 22" x="22" y="33" width="2" height="21" fill="white"/>
<rect id="Rectangle 23" x="27" y="21" width="2" height="33" fill="white"/>
<rect id="Rectangle 24" x="32" y="23" width="2" height="31" fill="white"/>
<rect id="Rectangle 25" x="37" y="33" width="2" height="21" fill="white"/>
<rect id="Rectangle 26" x="42" y="29" width="2" height="25" fill="white"/>
<rect id="Rectangle 27" x="47" y="23" width="2" height="31" fill="white"/>
<rect id="Rectangle 28" x="52" y="16" width="2" height="38" fill="white"/>
</g>
</g>
</g>
</svg>
