<svg width="506" height="70" viewBox="0 0 506 70" fill="none" xmlns="http://www.w3.org/2000/svg">
<path fill-rule="evenodd" clip-rule="evenodd" d="M35 70C54.33 70 70 54.33 70 35C70 15.67 54.33 0 35 0C15.67 0 0 15.67 0 35C0 54.33 15.67 70 35 70ZM18 13H13V56H18V13ZM23 23H28V56H23V23ZM38 33H33V56H38V33ZM43 27H48V56H43V27ZM58 20H53V56H58V20Z" fill="black"/>
<path d="M99.684 30.528C99.684 32.0827 99.3173 33.5493 98.584 34.928C97.8507 36.3067 96.6773 37.436 95.064 38.316C93.4507 39.1667 91.3827 39.592 88.86 39.592H83.316V52H78.3V21.42H88.86C91.2067 21.42 93.1867 21.8307 94.8 22.652C96.4427 23.444 97.66 24.5293 98.452 25.908C99.2733 27.2867 99.684 28.8267 99.684 30.528ZM88.86 35.5C90.7667 35.5 92.1893 35.0747 93.128 34.224C94.0667 33.344 94.536 32.112 94.536 30.528C94.536 27.184 92.644 25.512 88.86 25.512H83.316V35.5H88.86ZM114.984 52.396C112.696 52.396 110.628 51.8827 108.78 50.856C106.932 49.8 105.48 48.3333 104.424 46.456C103.368 44.5493 102.84 42.3493 102.84 39.856C102.84 37.392 103.383 35.2067 104.468 33.3C105.553 31.3933 107.035 29.9267 108.912 28.9C110.789 27.8733 112.887 27.36 115.204 27.36C117.521 27.36 119.619 27.8733 121.496 28.9C123.373 29.9267 124.855 31.3933 125.94 33.3C127.025 35.2067 127.568 37.392 127.568 39.856C127.568 42.32 127.011 44.5053 125.896 46.412C124.781 48.3187 123.256 49.8 121.32 50.856C119.413 51.8827 117.301 52.396 114.984 52.396ZM114.984 48.04C116.275 48.04 117.477 47.732 118.592 47.116C119.736 46.5 120.66 45.576 121.364 44.344C122.068 43.112 122.42 41.616 122.42 39.856C122.42 38.096 122.083 36.6147 121.408 35.412C120.733 34.18 119.839 33.256 118.724 32.64C117.609 32.024 116.407 31.716 115.116 31.716C113.825 31.716 112.623 32.024 111.508 32.64C110.423 33.256 109.557 34.18 108.912 35.412C108.267 36.6147 107.944 38.096 107.944 39.856C107.944 42.4667 108.604 44.4907 109.924 45.928C111.273 47.336 112.96 48.04 114.984 48.04ZM130.855 39.768C130.855 37.3333 131.353 35.1773 132.351 33.3C133.377 31.4227 134.756 29.9707 136.487 28.944C138.247 27.888 140.197 27.36 142.339 27.36C143.923 27.36 145.477 27.712 147.003 28.416C148.557 29.0907 149.789 30 150.699 31.144V19.44H155.759V52H150.699V48.348C149.877 49.5213 148.733 50.4893 147.267 51.252C145.829 52.0147 144.172 52.396 142.295 52.396C140.183 52.396 138.247 51.868 136.487 50.812C134.756 49.7267 133.377 48.2307 132.351 46.324C131.353 44.388 130.855 42.2027 130.855 39.768ZM150.699 39.856C150.699 38.184 150.347 36.732 149.643 35.5C148.968 34.268 148.073 33.3293 146.959 32.684C145.844 32.0387 144.641 31.716 143.351 31.716C142.06 31.716 140.857 32.0387 139.743 32.684C138.628 33.3 137.719 34.224 137.015 35.456C136.34 36.6587 136.003 38.096 136.003 39.768C136.003 41.44 136.34 42.9067 137.015 44.168C137.719 45.4293 138.628 46.3973 139.743 47.072C140.887 47.7173 142.089 48.04 143.351 48.04C144.641 48.04 145.844 47.7173 146.959 47.072C148.073 46.4267 148.968 45.488 149.643 44.256C150.347 42.9947 150.699 41.528 150.699 39.856ZM160.675 39.856C160.675 37.3627 161.174 35.1773 162.171 33.3C163.198 31.3933 164.606 29.9267 166.395 28.9C168.184 27.8733 170.238 27.36 172.555 27.36C175.488 27.36 177.908 28.064 179.815 29.472C181.751 30.8507 183.056 32.8307 183.731 35.412H178.319C177.879 34.2093 177.175 33.2707 176.207 32.596C175.239 31.9213 174.022 31.584 172.555 31.584C170.502 31.584 168.859 32.3173 167.627 33.784C166.424 35.2213 165.823 37.2453 165.823 39.856C165.823 42.4667 166.424 44.5053 167.627 45.972C168.859 47.4387 170.502 48.172 172.555 48.172C175.459 48.172 177.38 46.896 178.319 44.344H183.731C183.027 46.808 181.707 48.7733 179.771 50.24C177.835 51.6773 175.43 52.396 172.555 52.396C170.238 52.396 168.184 51.8827 166.395 50.856C164.606 49.8 163.198 48.3333 162.171 46.456C161.174 44.5493 160.675 42.3493 160.675 39.856ZM187.058 39.768C187.058 37.3333 187.556 35.1773 188.554 33.3C189.58 31.4227 190.959 29.9707 192.69 28.944C194.45 27.888 196.386 27.36 198.498 27.36C200.404 27.36 202.062 27.7413 203.47 28.504C204.907 29.2373 206.051 30.1613 206.902 31.276V27.756H211.962V52H206.902V48.392C206.051 49.536 204.892 50.4893 203.426 51.252C201.959 52.0147 200.287 52.396 198.41 52.396C196.327 52.396 194.42 51.868 192.69 50.812C190.959 49.7267 189.58 48.2307 188.554 46.324C187.556 44.388 187.058 42.2027 187.058 39.768ZM206.902 39.856C206.902 38.184 206.55 36.732 205.846 35.5C205.171 34.268 204.276 33.3293 203.162 32.684C202.047 32.0387 200.844 31.716 199.554 31.716C198.263 31.716 197.06 32.0387 195.946 32.684C194.831 33.3 193.922 34.224 193.218 35.456C192.543 36.6587 192.206 38.096 192.206 39.768C192.206 41.44 192.543 42.9067 193.218 44.168C193.922 45.4293 194.831 46.3973 195.946 47.072C197.09 47.7173 198.292 48.04 199.554 48.04C200.844 48.04 202.047 47.7173 203.162 47.072C204.276 46.4267 205.171 45.488 205.846 44.256C206.55 42.9947 206.902 41.528 206.902 39.856ZM227.35 52.396C225.443 52.396 223.727 52.0587 222.202 51.384C220.706 50.68 219.518 49.7413 218.638 48.568C217.758 47.3653 217.289 46.0307 217.23 44.564H222.422C222.51 45.5907 222.994 46.456 223.874 47.16C224.783 47.8347 225.913 48.172 227.262 48.172C228.67 48.172 229.755 47.908 230.518 47.38C231.31 46.8227 231.706 46.1187 231.706 45.268C231.706 44.3587 231.266 43.684 230.386 43.244C229.535 42.804 228.171 42.32 226.294 41.792C224.475 41.2933 222.994 40.8093 221.85 40.34C220.706 39.8707 219.709 39.152 218.858 38.184C218.037 37.216 217.626 35.94 217.626 34.356C217.626 33.0653 218.007 31.892 218.77 30.836C219.533 29.7507 220.618 28.9 222.026 28.284C223.463 27.668 225.106 27.36 226.954 27.36C229.711 27.36 231.926 28.064 233.598 29.472C235.299 30.8507 236.209 32.7427 236.326 35.148H231.31C231.222 34.0627 230.782 33.1973 229.99 32.552C229.198 31.9067 228.127 31.584 226.778 31.584C225.458 31.584 224.446 31.8333 223.742 32.332C223.038 32.8307 222.686 33.4907 222.686 34.312C222.686 34.9573 222.921 35.5 223.39 35.94C223.859 36.38 224.431 36.732 225.106 36.996C225.781 37.2307 226.778 37.5387 228.098 37.92C229.858 38.3893 231.295 38.8733 232.41 39.372C233.554 39.8413 234.537 40.5453 235.358 41.484C236.179 42.4227 236.605 43.6693 236.634 45.224C236.634 46.6027 236.253 47.8347 235.49 48.92C234.727 50.0053 233.642 50.856 232.234 51.472C230.855 52.088 229.227 52.396 227.35 52.396ZM247.906 31.848V45.268C247.906 46.1773 248.111 46.8373 248.522 47.248C248.962 47.6293 249.695 47.82 250.722 47.82H253.802V52H249.842C247.583 52 245.853 51.472 244.65 50.416C243.447 49.36 242.846 47.644 242.846 45.268V31.848H239.986V27.756H242.846V21.728H247.906V27.756H253.802V31.848H247.906ZM279.843 21.42C283.099 21.42 285.944 22.0507 288.379 23.312C290.843 24.544 292.735 26.3333 294.055 28.68C295.404 30.9973 296.079 33.7107 296.079 36.82C296.079 39.9293 295.404 42.628 294.055 44.916C292.735 47.204 290.843 48.964 288.379 50.196C285.944 51.3987 283.099 52 279.843 52H269.855V21.42H279.843ZM279.843 47.908C283.421 47.908 286.164 46.94 288.071 45.004C289.977 43.068 290.931 40.34 290.931 36.82C290.931 33.2707 289.977 30.4987 288.071 28.504C286.164 26.5093 283.421 25.512 279.843 25.512H274.871V47.908H279.843ZM299.378 39.768C299.378 37.3333 299.877 35.1773 300.874 33.3C301.901 31.4227 303.279 29.9707 305.01 28.944C306.77 27.888 308.706 27.36 310.818 27.36C312.725 27.36 314.382 27.7413 315.79 28.504C317.227 29.2373 318.371 30.1613 319.222 31.276V27.756H324.282V52H319.222V48.392C318.371 49.536 317.213 50.4893 315.746 51.252C314.279 52.0147 312.607 52.396 310.73 52.396C308.647 52.396 306.741 51.868 305.01 50.812C303.279 49.7267 301.901 48.2307 300.874 46.324C299.877 44.388 299.378 42.2027 299.378 39.768ZM319.222 39.856C319.222 38.184 318.87 36.732 318.166 35.5C317.491 34.268 316.597 33.3293 315.482 32.684C314.367 32.0387 313.165 31.716 311.874 31.716C310.583 31.716 309.381 32.0387 308.266 32.684C307.151 33.3 306.242 34.224 305.538 35.456C304.863 36.6587 304.526 38.096 304.526 39.768C304.526 41.44 304.863 42.9067 305.538 44.168C306.242 45.4293 307.151 46.3973 308.266 47.072C309.41 47.7173 310.613 48.04 311.874 48.04C313.165 48.04 314.367 47.7173 315.482 47.072C316.597 46.4267 317.491 45.488 318.166 44.256C318.87 42.9947 319.222 41.528 319.222 39.856ZM336.722 31.848V45.268C336.722 46.1773 336.928 46.8373 337.338 47.248C337.778 47.6293 338.512 47.82 339.538 47.82H342.618V52H338.658C336.4 52 334.669 51.472 333.466 50.416C332.264 49.36 331.662 47.644 331.662 45.268V31.848H328.802V27.756H331.662V21.728H336.722V27.756H342.618V31.848H336.722ZM345.569 39.768C345.569 37.3333 346.068 35.1773 347.065 33.3C348.092 31.4227 349.471 29.9707 351.201 28.944C352.961 27.888 354.897 27.36 357.009 27.36C358.916 27.36 360.573 27.7413 361.981 28.504C363.419 29.2373 364.563 30.1613 365.413 31.276V27.756H370.473V52H365.413V48.392C364.563 49.536 363.404 50.4893 361.937 51.252C360.471 52.0147 358.799 52.396 356.921 52.396C354.839 52.396 352.932 51.868 351.201 50.812C349.471 49.7267 348.092 48.2307 347.065 46.324C346.068 44.388 345.569 42.2027 345.569 39.768ZM365.413 39.856C365.413 38.184 365.061 36.732 364.357 35.5C363.683 34.268 362.788 33.3293 361.673 32.684C360.559 32.0387 359.356 31.716 358.065 31.716C356.775 31.716 355.572 32.0387 354.457 32.684C353.343 33.3 352.433 34.224 351.729 35.456C351.055 36.6587 350.717 38.096 350.717 39.768C350.717 41.44 351.055 42.9067 351.729 44.168C352.433 45.4293 353.343 46.3973 354.457 47.072C355.601 47.7173 356.804 48.04 358.065 48.04C359.356 48.04 360.559 47.7173 361.673 47.072C362.788 46.4267 363.683 45.488 364.357 44.256C365.061 42.9947 365.413 41.528 365.413 39.856ZM382.078 31.364C382.928 30.1907 384.087 29.2373 385.554 28.504C387.05 27.7413 388.707 27.36 390.526 27.36C392.667 27.36 394.603 27.8733 396.334 28.9C398.064 29.9267 399.428 31.3933 400.426 33.3C401.423 35.1773 401.922 37.3333 401.922 39.768C401.922 42.2027 401.423 44.388 400.426 46.324C399.428 48.2307 398.05 49.7267 396.29 50.812C394.559 51.868 392.638 52.396 390.526 52.396C388.648 52.396 386.976 52.0293 385.51 51.296C384.072 50.5627 382.928 49.624 382.078 48.48V52H377.062V19.44H382.078V31.364ZM396.818 39.768C396.818 38.096 396.466 36.6587 395.762 35.456C395.087 34.224 394.178 33.3 393.034 32.684C391.919 32.0387 390.716 31.716 389.426 31.716C388.164 31.716 386.962 32.0387 385.818 32.684C384.703 33.3293 383.794 34.268 383.09 35.5C382.415 36.732 382.078 38.184 382.078 39.856C382.078 41.528 382.415 42.9947 383.09 44.256C383.794 45.488 384.703 46.4267 385.818 47.072C386.962 47.7173 388.164 48.04 389.426 48.04C390.716 48.04 391.919 47.7173 393.034 47.072C394.178 46.3973 395.087 45.4293 395.762 44.168C396.466 42.9067 396.818 41.44 396.818 39.768ZM405.21 39.768C405.21 37.3333 405.709 35.1773 406.706 33.3C407.733 31.4227 409.111 29.9707 410.842 28.944C412.602 27.888 414.538 27.36 416.65 27.36C418.557 27.36 420.214 27.7413 421.622 28.504C423.059 29.2373 424.203 30.1613 425.054 31.276V27.756H430.114V52H425.054V48.392C424.203 49.536 423.045 50.4893 421.578 51.252C420.111 52.0147 418.439 52.396 416.562 52.396C414.479 52.396 412.573 51.868 410.842 50.812C409.111 49.7267 407.733 48.2307 406.706 46.324C405.709 44.388 405.21 42.2027 405.21 39.768ZM425.054 39.856C425.054 38.184 424.702 36.732 423.998 35.5C423.323 34.268 422.429 33.3293 421.314 32.684C420.199 32.0387 418.997 31.716 417.706 31.716C416.415 31.716 415.213 32.0387 414.098 32.684C412.983 33.3 412.074 34.224 411.37 35.456C410.695 36.6587 410.358 38.096 410.358 39.768C410.358 41.44 410.695 42.9067 411.37 44.168C412.074 45.4293 412.983 46.3973 414.098 47.072C415.242 47.7173 416.445 48.04 417.706 48.04C418.997 48.04 420.199 47.7173 421.314 47.072C422.429 46.4267 423.323 45.488 423.998 44.256C424.702 42.9947 425.054 41.528 425.054 39.856ZM445.502 52.396C443.596 52.396 441.88 52.0587 440.354 51.384C438.858 50.68 437.67 49.7413 436.79 48.568C435.91 47.3653 435.441 46.0307 435.382 44.564H440.574C440.662 45.5907 441.146 46.456 442.026 47.16C442.936 47.8347 444.065 48.172 445.414 48.172C446.822 48.172 447.908 47.908 448.67 47.38C449.462 46.8227 449.858 46.1187 449.858 45.268C449.858 44.3587 449.418 43.684 448.538 43.244C447.688 42.804 446.324 42.32 444.446 41.792C442.628 41.2933 441.146 40.8093 440.002 40.34C438.858 39.8707 437.861 39.152 437.01 38.184C436.189 37.216 435.778 35.94 435.778 34.356C435.778 33.0653 436.16 31.892 436.922 30.836C437.685 29.7507 438.77 28.9 440.178 28.284C441.616 27.668 443.258 27.36 445.106 27.36C447.864 27.36 450.078 28.064 451.75 29.472C453.452 30.8507 454.361 32.7427 454.478 35.148H449.462C449.374 34.0627 448.934 33.1973 448.142 32.552C447.35 31.9067 446.28 31.584 444.93 31.584C443.61 31.584 442.598 31.8333 441.894 32.332C441.19 32.8307 440.838 33.4907 440.838 34.312C440.838 34.9573 441.073 35.5 441.542 35.94C442.012 36.38 442.584 36.732 443.258 36.996C443.933 37.2307 444.93 37.5387 446.25 37.92C448.01 38.3893 449.448 38.8733 450.562 39.372C451.706 39.8413 452.689 40.5453 453.51 41.484C454.332 42.4227 454.757 43.6693 454.786 45.224C454.786 46.6027 454.405 47.8347 453.642 48.92C452.88 50.0053 451.794 50.856 450.386 51.472C449.008 52.088 447.38 52.396 445.502 52.396ZM482.426 39.284C482.426 40.1933 482.368 41.0147 482.25 41.748H463.726C463.873 43.684 464.592 45.2387 465.882 46.412C467.173 47.5853 468.757 48.172 470.634 48.172C473.333 48.172 475.24 47.0427 476.354 44.784H481.766C481.033 47.0133 479.698 48.8467 477.762 50.284C475.856 51.692 473.48 52.396 470.634 52.396C468.317 52.396 466.234 51.8827 464.386 50.856C462.568 49.8 461.13 48.3333 460.074 46.456C459.048 44.5493 458.534 42.3493 458.534 39.856C458.534 37.3627 459.033 35.1773 460.03 33.3C461.057 31.3933 462.48 29.9267 464.298 28.9C466.146 27.8733 468.258 27.36 470.634 27.36C472.922 27.36 474.961 27.8587 476.75 28.856C478.54 29.8533 479.933 31.2613 480.93 33.08C481.928 34.8693 482.426 36.9373 482.426 39.284ZM477.19 37.7C477.161 35.852 476.501 34.3707 475.21 33.256C473.92 32.1413 472.321 31.584 470.414 31.584C468.684 31.584 467.202 32.1413 465.97 33.256C464.738 34.3413 464.005 35.8227 463.77 37.7H477.19Z" fill="black"/>
</svg>
